<svg xmlns="http://www.w3.org/2000/svg" width="1180" height="360" viewBox="0 0 1180 360">
<defs><marker id="a" markerWidth="10" markerHeight="10" refX="8" refY="3" orient="auto"><path d="M0,0 L0,6 L9,3 z" fill="#64748b"/></marker></defs>
<rect width="100%" height="100%" fill="#f8fafc"/>
<g font-family="'Malgun Gothic', 'Noto Sans KR', sans-serif" fill="#0f172a">
<text x="30" y="48" font-size="26" font-weight="700">문서 등록 자료 흐름</text>
<text x="30" y="78" font-size="14" fill="#64748b">PDF가 검색용 조각·벡터와 원본·체크리스트로 저장되는 과정 (문서_등록_DFD.mmd 기준) · 원통 모양은 저장소</text>
<rect x="30" y="110" rx="14" width="190" height="70" fill="#dbeafe" stroke="#334155"/>
<text x="125" y="151" text-anchor="middle" font-size="16">관리자 PDF</text>
<rect x="255" y="110" rx="14" width="190" height="70" fill="#dcfce7" stroke="#334155"/>
<text x="350" y="151" text-anchor="middle" font-size="16">글·그림 추출</text>
<rect x="480" y="110" rx="14" width="190" height="70" fill="#fef3c7" stroke="#334155"/>
<text x="575" y="140" text-anchor="middle" font-size="16">900자 청킹</text>
<text x="575" y="162" text-anchor="middle" font-size="16">120자 겹침</text>
<rect x="705" y="110" rx="14" width="190" height="70" fill="#ede9fe" stroke="#334155"/>
<text x="800" y="151" text-anchor="middle" font-size="16">Gemini 임베딩</text>
<path d="M930,122 a95,12 0 0,1 190,0 v46 a95,12 0 0,1 -190,0 z" fill="#fee2e2" stroke="#334155"/>
<path d="M930,122 a95,12 0 0,0 190,0" fill="none" stroke="#334155"/>
<text x="1025" y="157" text-anchor="middle" font-size="16">ChromaDB</text>
<path d="M255,252 a95,12 0 0,1 190,0 v52 a95,12 0 0,1 -190,0 z" fill="#e2e8f0" stroke="#334155"/>
<path d="M255,252 a95,12 0 0,0 190,0" fill="none" stroke="#334155"/>
<text x="350" y="282" text-anchor="middle" font-size="15">원본 PDF·이미지</text>
<text x="350" y="302" text-anchor="middle" font-size="15">·JSON 보관</text>
<rect x="480" y="240" rx="14" width="190" height="76" fill="#e0f2f1" stroke="#334155"/>
<text x="575" y="272" text-anchor="middle" font-size="16">체크리스트</text>
<text x="575" y="294" text-anchor="middle" font-size="16">구조 추출</text>
</g>
<g stroke="#64748b" stroke-width="2" fill="none" marker-end="url(#a)">
<line x1="220" y1="145" x2="247" y2="145"/>
<line x1="445" y1="145" x2="472" y2="145"/>
<line x1="670" y1="145" x2="697" y2="145"/>
<line x1="895" y1="145" x2="922" y2="145"/>
<line x1="350" y1="180" x2="350" y2="232"/>
<path d="M395,180 C395,215 575,205 575,232"/>
</g>
</svg>
