<svg xmlns="http://www.w3.org/2000/svg" width="1180" height="505" viewBox="0 0 1180 505">
<defs><marker id="a" markerWidth="10" markerHeight="10" refX="8" refY="3" orient="auto"><path d="M0,0 L0,6 L9,3 z" fill="#64748b"/></marker></defs>
<rect width="100%" height="100%" fill="#f8fafc"/><text x="40" y="48" font-family="sans-serif" font-size="26" font-weight="700" fill="#0f172a">문서 등록 자료 흐름</text>
<rect x="30" y="110" rx="14" width="210" height="54" fill="#dbeafe" stroke="#334155"/>
<text x="135" y="144" text-anchor="middle" font-family="sans-serif" font-size="16" fill="#0f172a">관리자 PDF</text>
<rect x="270" y="110" rx="14" width="210" height="54" fill="#dcfce7" stroke="#334155"/>
<text x="375" y="144" text-anchor="middle" font-family="sans-serif" font-size="16" fill="#0f172a">글·그림 추출</text>
<rect x="510" y="110" rx="14" width="210" height="54" fill="#fef3c7" stroke="#334155"/>
<text x="615" y="144" text-anchor="middle" font-family="sans-serif" font-size="16" fill="#0f172a">900자 조각</text>
<rect x="750" y="110" rx="14" width="210" height="54" fill="#ede9fe" stroke="#334155"/>
<text x="855" y="144" text-anchor="middle" font-family="sans-serif" font-size="16" fill="#0f172a">Gemini 임베딩</text>
<rect x="990" y="110" rx="14" width="210" height="54" fill="#fee2e2" stroke="#334155"/>
<text x="1095" y="144" text-anchor="middle" font-family="sans-serif" font-size="16" fill="#0f172a">Chroma·파일 저장</text>
<line x1="240" y1="137" x2="262" y2="137" stroke="#64748b" stroke-width="2" marker-end="url(#a)"/>
<line x1="480" y1="137" x2="502" y2="137" stroke="#64748b" stroke-width="2" marker-end="url(#a)"/>
<line x1="720" y1="137" x2="742" y2="137" stroke="#64748b" stroke-width="2" marker-end="url(#a)"/>
<line x1="960" y1="137" x2="982" y2="137" stroke="#64748b" stroke-width="2" marker-end="url(#a)"/>
</svg>
