<svg xmlns="http://www.w3.org/2000/svg" width="1180" height="250" viewBox="0 0 1180 250">
<defs><marker id="a" markerWidth="10" markerHeight="10" refX="8" refY="3" orient="auto"><path d="M0,0 L0,6 L9,3 z" fill="#64748b"/></marker></defs>
<rect width="100%" height="100%" fill="#f8fafc"/>
<g font-family="'Malgun Gothic', 'Noto Sans KR', sans-serif" fill="#0f172a">
<text x="30" y="48" font-size="26" font-weight="700">질문 처리 흐름</text>
<text x="30" y="78" font-size="14" fill="#64748b">직원 질문이 답변·출처·체크리스트가 되기까지 (질문_처리_플로우.mmd 기준)</text>
<rect x="25" y="110" rx="14" width="165" height="76" fill="#dbeafe" stroke="#334155"/>
<text x="107.5" y="154" text-anchor="middle" font-size="16">질문</text>
<rect x="218" y="110" rx="14" width="165" height="76" fill="#dcfce7" stroke="#334155"/>
<text x="300.5" y="144" text-anchor="middle" font-size="16">동의어·띄어쓰기</text>
<text x="300.5" y="166" text-anchor="middle" font-size="16">처리</text>
<rect x="411" y="110" rx="14" width="165" height="76" fill="#fef3c7" stroke="#334155"/>
<text x="493.5" y="144" text-anchor="middle" font-size="15">Chroma 의미 검색</text>
<text x="493.5" y="166" text-anchor="middle" font-size="15">+ BM25 단어 검색</text>
<rect x="604" y="110" rx="14" width="165" height="76" fill="#ede9fe" stroke="#334155"/>
<text x="686.5" y="154" text-anchor="middle" font-size="16">관련 근거 거르기</text>
<rect x="797" y="110" rx="14" width="165" height="76" fill="#fee2e2" stroke="#334155"/>
<text x="879.5" y="144" text-anchor="middle" font-size="16">Gemini</text>
<text x="879.5" y="166" text-anchor="middle" font-size="16">자유형 답변</text>
<rect x="990" y="110" rx="14" width="165" height="76" fill="#e0f2f1" stroke="#334155"/>
<text x="1072.5" y="144" text-anchor="middle" font-size="16">답변·출처·</text>
<text x="1072.5" y="166" text-anchor="middle" font-size="16">체크리스트</text>
</g>
<g stroke="#64748b" stroke-width="2" marker-end="url(#a)">
<line x1="190" y1="148" x2="210" y2="148"/>
<line x1="383" y1="148" x2="403" y2="148"/>
<line x1="576" y1="148" x2="596" y2="148"/>
<line x1="769" y1="148" x2="789" y2="148"/>
<line x1="962" y1="148" x2="982" y2="148"/>
</g>
</svg>
